<?xml version="1.0" encoding="utf-8"?>
<!-- Generator: Adobe Illustrator 21.0.0, SVG Export Plug-In . SVG Version: 6.00 Build 0)  -->
<svg version="1.1" id="Calque_1" xmlns="http://www.w3.org/2000/svg" xmlns:xlink="http://www.w3.org/1999/xlink" x="0px" y="0px"
	 viewBox="0 0 157.6 70.8" style="enable-background:new 0 0 157.6 70.8;" xml:space="preserve">
<style type="text/css">
	.st0{fill:#010202;}
</style>
<g>
	<path d="M0,33.7V11.9h1.2v20.6h8.5v1.2H0z"/>
	<path d="M23.9,11.9v1.2h-9.7v9.1h9.7v1.2h-9.7v9.1h9.7v1.2H13V11.9H23.9z"/>
	<path d="M54.8,30.3l0.9,0.8C53.6,33,51.1,34,48.2,34c-3.1,0-5.7-1.1-7.9-3.3S37,25.9,37,22.8c0-3.1,1.1-5.7,3.3-7.9
		s4.8-3.3,7.9-3.3c2.9,0,5.4,1,7.5,2.9l-0.9,0.8c-1.9-1.7-4.1-2.5-6.6-2.5c-2.7,0-5.1,1-7,2.9s-2.9,4.3-2.9,7c0,2.8,1,5.1,2.9,7
		s4.3,2.9,7,2.9C50.7,32.8,52.9,31.9,54.8,30.3z"/>
	<path d="M59.2,33.7V11.9h1.2v20.6h8.5v1.2H59.2z"/>
	<path d="M84.7,11.9H86v15.7c-0.2,1.7-0.9,3.1-2.1,4.3c-1.4,1.4-3.1,2.1-5,2.1c-2,0-3.7-0.7-5.1-2.1s-2.1-3.1-2.1-5V11.9h1.2v14.9
		c0,1.6,0.6,3,1.7,4.2s2.5,1.7,4.2,1.7s3-0.6,4.2-1.7s1.7-2.5,1.7-4.2V11.9z"/>
	<path d="M93.9,11.9c1.1,0,2.1,0.4,2.9,1.2s1.2,1.8,1.2,2.9c0,1.1-0.6,2.2-1.7,3.2c1,0.2,2,0.8,2.9,1.8c1.5,1.5,2.2,3.2,2.2,5.3
		c0,2.1-0.7,3.9-2.2,5.4c-1.4,1.4-3,2.1-4.9,2.1v0h-4.2V11.9H93.9z M91.3,13.1v5.6h3c0.7-0.1,1.3-0.3,1.8-0.8c0.6-0.5,0.8-1.2,0.8-2
		s-0.3-1.5-0.8-2s-1.2-0.8-2.1-0.8H91.3z M91.3,20v12.5h3v0c1.5-0.1,2.8-0.7,3.9-1.9c1.2-1.2,1.8-2.7,1.8-4.4s-0.6-3.2-1.8-4.4
		S95.6,20,93.8,20H91.3z"/>
	<path d="M0.3,68L0.3,68c0-2.1,0.6-3.6,1.7-4.8c1.2-1.2,2.7-1.8,4.5-1.8c1.7,0,3.2,0.6,4.5,1.8c1.1,1.1,1.7,2.7,1.7,4.7V68h0v0.7
		H0.2L0.3,68L0.3,68z M1,68h10.9V68c0-1.8-0.5-3.2-1.5-4.2c-1.1-1.1-2.4-1.6-4-1.6c-1.5,0-2.9,0.5-4,1.6C1.5,64.7,1,66.1,1,68L1,68z
		"/>
	<path d="M0.2,53.3h0.7v5.5H6v-5.5h0.7v5.5h5.1v-5.5h0.7v6.1H0.2V53.3z"/>
	<path d="M5.7,48.2c-0.3,0.9-0.7,1.6-1.2,2.1C4,50.8,3.4,51,2.7,51c-0.7,0-1.3-0.3-1.8-0.8c-0.5-0.5-0.8-1.1-0.8-1.8
		c0-0.7,0.3-1.3,0.8-1.8c0.3-0.3,0.6-0.5,0.9-0.6L2,46.6c-0.3,0.1-0.5,0.2-0.7,0.5c-0.4,0.4-0.6,0.8-0.6,1.4s0.2,1,0.6,1.4
		c0.4,0.4,0.8,0.6,1.4,0.6c0.5,0,1-0.2,1.4-0.6c0.3-0.3,0.7-0.8,0.9-1.4c0.3-1,0.8-1.8,1.5-2.5C7.2,45.1,8,44.8,9,44.8
		c1,0,1.9,0.4,2.6,1.1c0.7,0.7,1.1,1.6,1.1,2.6s-0.4,1.9-1.1,2.6c-0.6,0.6-1.2,0.9-2,1l-0.2-0.7c0.7-0.1,1.2-0.4,1.7-0.9
		c0.6-0.6,0.9-1.3,0.9-2.1c0-0.8-0.3-1.5-0.9-2.1c-0.6-0.6-1.3-0.9-2.1-0.9c-0.8,0-1.5,0.3-2.1,0.9C6.4,46.8,6,47.4,5.7,48.2z"/>
	<g>
		<path d="M42.5,63.9l0.9,0.8c-2.1,1.9-4.6,2.9-7.5,2.9c-3.1,0-5.7-1.1-7.9-3.3c-2.2-2.2-3.3-4.8-3.3-7.9c0-3.1,1.1-5.7,3.3-7.9
			s4.8-3.3,7.9-3.3c2.9,0,5.4,1,7.5,2.9L42.5,49c-1.9-1.7-4.1-2.5-6.6-2.5c-2.7,0-5.1,1-7,2.9s-2.9,4.3-2.9,7c0,2.8,1,5.1,2.9,7
			c1.9,1.9,4.3,2.9,7,2.9C38.4,66.4,40.6,65.5,42.5,63.9z"/>
		<path d="M52.1,59.7c-0.1,0-0.2,0-0.4,0h-3.7v7.6h-1.2V45.5h5.7c1.7,0.2,3.1,0.9,4.3,2.1c1.4,1.4,2.1,3.1,2.1,5
			c0,2-0.7,3.7-2.1,5.1c-1,1-2.1,1.6-3.3,1.9l5,7.8H57L52.1,59.7z M48.1,46.7v11.8h3.7c1.6,0,3-0.6,4.2-1.7s1.7-2.5,1.7-4.2
			s-0.6-3-1.7-4.2s-2.5-1.7-4.2-1.7H48.1z"/>
		<path d="M63.2,45.5v21.9H62V45.5H63.2z"/>
		<path d="M73,46.7v20.6h-1.2V46.7h-5.5v-1.2h12.3v1.2H73z"/>
		<path d="M82.8,45.5v21.9h-1.2V45.5H82.8z"/>
		<path d="M97.9,67.6c-3,0-5.6-1.1-7.8-3.3c-2.2-2.2-3.3-4.8-3.3-7.9s1.1-5.7,3.3-7.9s4.8-3.3,7.9-3.3s5.7,1.1,7.9,3.3
			s3.3,4.8,3.3,7.9s-1.1,5.7-3.3,7.9c-1.6,1.6-3.4,2.6-5.5,3c0,0,0.1,0,0.1,0c0.7,0.2,1.6,0.6,2.7,1.3c0.8,0.4,1.3,0.7,1.6,0.8
			c0.2,0.1,0.4,0.1,0.6,0.1c0.3,0,0.6-0.1,1-0.3c0.5-0.3,0.8-0.7,0.9-1.2c0-0.1,0.1-0.3,0.1-0.4h1.2c0,0.2-0.1,0.5-0.1,0.8
			c-0.2,0.9-0.8,1.5-1.5,1.9c-0.5,0.3-1,0.4-1.5,0.4c-0.3,0-0.6,0-0.9-0.1c-0.5-0.1-1.3-0.5-2.3-1.2c-0.9-0.5-1.6-0.8-2-0.9
			c-0.3-0.1-0.5-0.1-0.8-0.1c-0.5,0-0.9,0.1-1.3,0.4c-0.7,0.4-1.1,0.9-1.3,1.7c0,0.1-0.1,0.2-0.1,0.3h-1.2c0-0.2,0.1-0.4,0.1-0.7
			c0.3-1.1,0.9-1.9,1.9-2.4C97.7,67.7,97.8,67.6,97.9,67.6z M98,46.4c-2.8,0-5.1,1-7,2.9s-2.9,4.3-2.9,7s1,5.1,2.9,7.1
			c1.9,2,4.3,2.9,7,2.9s5.1-1,7-2.9c1.9-2,2.9-4.3,2.9-7.1s-1-5.1-2.9-7S100.8,46.4,98,46.4z"/>
		<path d="M126.1,45.5h1.2v15.7c-0.2,1.7-0.9,3.1-2.1,4.3c-1.4,1.4-3.1,2.1-5,2.1c-2,0-3.7-0.7-5.1-2.1s-2.1-3.1-2.1-5V45.5h1.2
			v14.9c0,1.6,0.6,3,1.7,4.2c1.2,1.2,2.5,1.7,4.2,1.7s3-0.6,4.2-1.7c1.1-1.2,1.7-2.5,1.7-4.2V45.5z"/>
		<path d="M142.3,45.5v1.2h-9.7v9.1h9.7V57h-9.7v9.1h9.7v1.2h-10.9V45.5H142.3z"/>
		<path d="M151.5,55.2c-1.6-0.5-2.8-1.2-3.7-2.1s-1.4-2-1.4-3.3c0-1.3,0.5-2.3,1.4-3.2s2-1.4,3.3-1.4c1.3,0,2.4,0.5,3.3,1.4
			c0.5,0.5,0.8,1,1,1.6l-1.1,0.4c-0.2-0.4-0.4-0.9-0.8-1.2c-0.7-0.7-1.5-1-2.4-1s-1.7,0.3-2.4,1s-1,1.5-1,2.4c0,0.9,0.3,1.7,1,2.4
			c0.6,0.6,1.5,1.2,2.6,1.7c1.8,0.6,3.2,1.4,4.4,2.6c1.3,1.3,1.9,2.8,1.9,4.6c0,1.8-0.6,3.3-1.9,4.6s-2.8,1.9-4.6,1.9
			s-3.3-0.6-4.6-1.9c-1-1-1.6-2.2-1.8-3.5l1.2-0.4c0.1,1.2,0.6,2.2,1.5,3.1c1,1,2.3,1.5,3.7,1.5c1.5,0,2.7-0.5,3.7-1.5
			c1-1,1.5-2.3,1.5-3.7c0-1.4-0.5-2.7-1.5-3.7C154,56.5,152.8,55.8,151.5,55.2z"/>
	</g>
</g>
<path class="st0" d="M155.6,0h-7c-0.2,0-0.4,0.2-0.4,0.4v34.1c0,0.2,0.2,0.4,0.4,0.4h7c0.2,0,0.4-0.2,0.4-0.4V0.5
	C156,0.2,155.8,0,155.6,0z M149.2,4.8h5.7v1.7h-5.7V4.8z M154.9,30.5h-5.7v-1.3l0,0l0,0v-0.5h5.7V30.5z"/>
<path class="st0" d="M129.1,0.9l-7-0.7c-0.2,0-0.4,0.2-0.5,0.4l-3.8,33.2c0,0.2,0.1,0.4,0.4,0.5l7,0.7c0.2,0,0.4-0.2,0.5-0.4
	l3.8-33.2C129.4,1.2,129.3,1,129.1,0.9z M125.1,30.1l-5.7-0.6l0.2-1.7l5.7,0.6L125.1,30.1z M127.8,5.8L127.8,5.8l-0.1,0.8L122,6.1
	l0.2-1.7l5.7,0.6L127.8,5.8L127.8,5.8z"/>
<path class="st0" d="M146.8,2.2h-7.1c-0.2,0-0.4,0.2-0.4,0.4v32c0,0.2,0.2,0.4,0.4,0.4h7c0.2,0,0.4-0.2,0.4-0.4v-32
	C147.2,2.4,147,2.2,146.8,2.2z M140.4,5.1h5.7v1.2h-5.7V5.1z M146.1,31.5h-5.8v-0.6l0,0l0,0v-0.6h5.7L146.1,31.5L146.1,31.5z"/>
<path class="st0" d="M138,2.2h-7c-0.2,0-0.4,0.2-0.4,0.4v32c0,0.2,0.2,0.4,0.4,0.4h7c0.2,0,0.4-0.2,0.4-0.4v-32
	C138.5,2.4,138.3,2.2,138,2.2z M137.4,31.5h-5.7v-1.2h5.7v0.6l0,0l0,0V31.5z M137.4,5.7v0.6h-5.7V5.1h5.7V5.7L137.4,5.7L137.4,5.7z"
	/>
</svg>
